<svg version="1.1" xmlns="http://www.w3.org/2000/svg" xmlns:xlink="http://www.w3.org/1999/xlink" width="1560" height="804"><defs/><g><path fill="none" stroke="#02063B" paint-order="fill stroke markers" d=" M 20 409.77517757922743 L 21 410.1593165612269 L 22 410.54278122418765 L 23 410.92553987703354 L 24 411.30756088703595 L 25 411.68881268242797 L 26 412.06926375501376 L 27 412.44888266277246 L 28 412.8276380324568 L 29 413.2054985621855 L 30 413.58243302403076 L 31 413.9584102665987 L 32 414.333399217604 L 33 414.7073688864376 L 34 415.0802883667282 L 35 415.45212683889633 L 36 415.8228535727013 L 37 416.19243792978114 L 38 416.56084936618447 L 39 416.9280574348948 L 40 417.2940317883469 L 41 417.65874218093467 L 42 418.02215847151103 L 43 418.38425062587856 L 44 418.744988719272 L 45 419.104342938831 L 46 419.46228358606436 L 47 419.81878107930413 L 48 420.17380595615043 L 49 420.5273288759064 L 50 420.8793206220031 L 51 421.2297521044139 L 52 421.5785943620587 L 53 421.9258185651974 L 54 422.27139601781255 L 55 422.61529815998074 L 56 422.95749657023305 L 57 423.29796296790397 L 58 423.63666921546843 L 59 423.97358732086735 L 60 424.30868943982097 L 61 424.64194787813005 L 62 424.9733350939645 L 63 425.30282370013987 L 64 425.6303864663803 L 65 425.95599632156916 L 66 426.2796263559865 L 67 426.60124982353267 L 68 426.92084014393885 L 69 427.23837090496374 L 70 427.55381586457645 L 71 427.86714895312514 L 72 428.1783442754916 L 73 428.4873761132312 L 74 428.79421892669865 L 75 429.0988473571583 L 76 429.40123622888024 L 77 429.7013605512207 L 78 429.9991955206875 L 79 430.29471652299 L 80 430.58789913507286 L 81 430.8787191271352 L 82 431.1671524646323 L 83 431.45317531026257 L 84 431.73676402593696 L 85 432.0178951747331 L 86 432.2965455228316 L 87 432.57269204143677 L 88 432.84631190867947 L 89 433.11738251150325 L 90 433.38588144753317 L 91 433.6517865269274 L 92 433.91507577421095 L 93 434.1757274300916 L 94 434.4337199532587 L 95 434.68903202216285 L 96 434.94164253677843 L 97 435.19153062034724 L 98 435.4386756211037 L 99 435.6830571139818 L 100 435.9246549023031 L 101 436.1634490194457 L 102 436.3994197304945 L 103 436.6325475338722 L 104 436.8628131629509 L 105 437.0901975876443 L 106 437.3146820159806 L 107 437.53624789565566 L 108 437.75487691556566 L 109 437.9705510073211 L 110 438.18325234673955 L 111 438.39296335531907 L 112 438.5996667016907 L 113 438.80334530305083 L 114 439.0039823265732 L 115 439.2015611907998 L 116 439.3960655670113 L 117 439.5874793805766 L 118 439.77578681228124 L 119 439.9609722996347 L 120 440.14302053815663 L 121 440.3219164826417 L 122 440.497645348403 L 123 440.6701926124937 L 124 440.8395440149076 L 125 441.00568555975735 L 126 441.1686035164314 L 127 441.3282844207285 L 128 441.4847150759706 L 129 441.63788255409344 L 130 441.78777419671485 L 131 441.93437761618117 L 132 442.07768069659073 L 133 442.2176715947953 L 134 442.35433874137885 L 135 442.4876708416137 L 136 442.6176568763938 L 137 442.7442861031457 L 138 442.8675480567162 L 139 442.98743255023703 L 140 443.1039296759671 L 141 443.217029806111 L 142 443.32672359361504 L 143 443.4330019729393 L 144 443.53585616080716 L 145 443.63527765693107 L 146 443.731258244715 L 147 443.8237899919336 L 148 443.9128652513878 L 149 443.99847666153653 L 150 444.08061714710533 L 151 444.1592799196711 L 152 444.23445847822313 L 153 444.3061466097001 L 154 444.3743383895038 L 155 444.4390281819888 L 156 444.5002106409282 L 157 444.55788070995504 L 158 444.61203362298096 L 159 444.66266490458923 L 160 444.7097703704054 L 161 444.75334612744246 L 162 444.793388574423 L 163 444.82989440207666 L 164 444.86286059341376 L 165 444.89228442397433 L 166 444.91816346205366 L 167 444.940495568903 L 168 444.9592788989063 L 169 444.974511899733 L 170 444.98619331246607 L 171 444.9943221717062 L 172 444.9988978056514 L 173 444.99991983615274 L 174 444.99738817874544 L 175 444.991303042656 L 176 444.98166493078475 L 177 444.9684746396643 L 178 444.9517332593939 L 179 444.9314421735492 L 180 444.90760305906787 L 181 444.8802178861111 L 182 444.8492889179007 L 183 444.8148187105322 L 184 444.77681011276337 L 185 444.73526626577905 L 186 444.6901906029314 L 187 444.64158684945613 L 188 444.58945902216476 L 189 444.5338114291124 L 190 444.4746486692421 L 191 444.41197563200444 L 192 444.3457974969536 L 193 444.2761197333193 L 194 444.20294809955476 L 195 444.12628864286074 L 196 444.0461476986859 L 197 443.9625318902032 L 198 443.8754481277624 L 199 443.7849036083191 L 200 443.69090581483994 L 201 443.593462515684 L 202 443.4925817639612 L 203 443.3882718968662 L 204 443.2805415349898 L 205 443.16939958160646 L 206 443.0548552219383 L 207 442.93691792239605 L 208 442.8155974297969 L 209 442.6909037705588 L 210 442.5628472498719 L 211 442.43143845084677 L 212 442.29668823364 L 213 442.1586077345564 L 214 442.01720836512897 L 215 441.8725018111755 L 216 441.7245000318329 L 217 441.573215258569 L 218 441.41865999417155 L 219 441.2608470117148 L 220 441.0997893535043 L 221 440.9355003299986 L 222 440.76799351870943 L 223 440.5972827630796 L 224 440.4233821713388 L 225 440.2463061153378 L 226 440.06606922936066 L 227 439.88268640891516 L 228 439.69617280950195 L 229 439.5065438453619 L 230 439.3138151882022 L 231 439.11800276590156 L 232 438.9191227611932 L 233 438.71719161032803 L 234 438.5122260017159 L 235 438.3042428745466 L 236 438.09325941739013 L 237 437.87929306677563 L 238 437.6623615057508 L 239 437.44248266242033 L 240 437.21967470846437 L 241 436.9939560576366 L 242 436.76534536424236 L 243 436.53386152159743 L 244 436.29952366046604 L 245 436.0623511474803 L 246 435.8223635835392 L 247 435.5795808021892 L 248 435.3340228679848 L 249 435.08571007483033 L 250 434.834662944303 L 251 434.5809022239565 L 252 434.3244488856069 L 253 434.065324123599 L 254 433.80354935305473 L 255 433.53914620810383 L 256 433.27213654009535 L 257 433.002542415792 L 258 432.7303861155465 L 259 432.4556901314601 L 260 432.17847716552393 L 261 431.8987701277427 L 262 431.61659213424133 L 263 431.3319665053545 L 264 431.04491676369946 L 265 430.75546663223207 L 266 430.4636400322859 L 267 430.1694610815958 L 268 429.8729540923042 L 269 429.57414356895225 L 270 429.27305420645445 L 271 428.96971088805776 L 272 428.6641386832854 L 273 428.3563628458645 L 274 428.0464088116396 L 275 427.73430219647014 L 276 427.4200687941136 L 277 427.10373457409383 L 278 426.7853256795547 L 279 426.4648684250998 L 280 426.1423892946171 L 281 425.81791493909105 L 282 425.49147217439935 L 283 425.1630879790971 L 284 424.83278949218703 L 285 424.5006040108768 L 286 424.16655898832295 L 287 423.83068203136196 L 288 423.4930008982288 L 289 423.15354349626296 L 290 422.812337879602 L 291 422.469412246863 L 292 422.12479493881216 L 293 421.7785144360226 L 294 421.4305993565206 L 295 421.0810784534204 L 296 420.7299806125482 L 297 420.3773348500547 L 298 420.02317031001695 L 299 419.6675162620301 L 300 419.31040209878836 L 301 418.95185733365554 L 302 418.5919115982264 L 303 418.23059463987744 L 304 417.86793631930874 L 305 417.50396660807587 L 306 417.13871558611316 L 307 416.7722134392475 L 308 416.4044904567039 L 309 416.0355770286023 L 310 415.66550364344573 L 311 415.2943008856008 L 312 414.9219994327702 L 313 414.54863005345703 L 314 414.1742236044223 L 315 413.7988110281347 L 316 413.4224233502133 L 317 413.0450916768635 L 318 412.6668471923063 L 319 412.28772115620126 L 320 411.90774490106276 L 321 411.5269498296709 L 322 411.14536741247593 L 323 410.76302918499766 L 324 410.3799667452191 L 325 409.9962117509751 L 326 409.61179591733594 L 327 409.22675101398653 L 328 408.8411088626005 L 329 408.4549013342105 L 330 408.0681603465743 L 331 407.68091786153684 L 332 407.2932058823889 L 333 406.90505645122215 L 334 406.5165016462811 L 335 406.12757357931173 L 336 405.73830439290833 L 337 405.3487262578564 L 338 404.9588713704743 L 339 404.5687719499523 L 340 404.17846023568995 L 341 403.7879684846315 L 342 403.3973289686003 L 343 403.0065739716314 L 344 402.6157357873039 L 345 402.22484671607174 L 346 401.8339390625943 L 347 401.44304513306673 L 348 401.05219723255004 L 349 400.66142766230115 L 350 400.27076871710335 L 351 399.8802526825976 L 352 399.48991183261404 L 353 399.09977842650494 L 354 398.7098847064784 L 355 398.32026289493405 L 356 397.9309451917998 L 357 397.54196377187094 L 358 397.15335078215077 L 359 396.76513833919415 L 360 396.37735852645307 L 361 395.99004339162525 L 362 395.60322494400543 L 363 395.21693515184035 L 364 394.8312059396862 L 365 394.44606918577074 L 366 394.0615567193587 L 367 393.6777003181208 L 368 393.29453170550823 L 369 392.91208254813034 L 370 392.5303844531378 L 371 392.14946896561054 L 372 391.76936756595046 L 373 391.39011166728005 L 374 391.01173261284623 L 375 390.6342616734298 L 376 390.2577300447614 L 377 389.88216884494295 L 378 389.50760911187655 L 379 389.1340818006988 L 380 388.7616177812228 L 381 388.39024783538696 L 382 388.02000265471094 L 383 387.6509128377592 L 384 387.2830088876125 L 385 386.91632120934634 L 386 386.550880107519 L 387 386.18671578366633 L 388 385.8238583338062 L 389 385.46233774595106 L 390 385.10218389762974 L 391 384.743426553418 L 392 384.386095362479 L 393 384.03021985611275 L 394 383.6758294453155 L 395 383.32295341834936 L 396 382.97162093832134 L 397 382.62186104077375 L 398 382.2737026312841 L 399 381.9271744830765 L 400 381.5823052346437 L 401 381.2391233873801 L 402 380.89765730322665 L 403 380.5579352023264 L 404 380.2199851606927 L 405 379.8838351078888 L 406 379.5495128247193 L 407 379.2170459409348 L 408 378.886461932948 L 409 378.5577881215631 L 410 378.231051669718 L 411 377.9062795802392 L 412 377.58349869361047 L 413 377.26273568575436 L 414 376.9440170658279 L 415 376.62736917403134 L 416 376.3128181794318 L 417 376.00039007780026 L 418 375.6901106894631 L 419 375.38200565716835 L 420 375.0761004439664 L 421 374.77242033110593 L 422 374.47099041594385 L 423 374.17183560987195 L 424 373.87498063625765 L 425 373.5804500284008 L 426 373.2882681275064 L 427 372.99845908067266 L 428 372.71104683889547 L 429 372.4260551550891 L 430 372.1435075821231 L 431 371.86342747087576 L 432 371.5858379683042 L 433 371.3107620155317 L 434 371.03822234595145 L 435 370.76824148334805 L 436 370.5008417400357 L 437 370.23604521501466 L 438 369.9738737921445 L 439 369.7143491383357 L 440 369.45749270175907 L 441 369.20332571007316 L 442 368.95186916866965 L 443 368.7031438589379 L 444 368.457170336547 L 445 368.21396892974724 L 446 367.97355973769004 L 447 367.73596262876686 L 448 367.50119723896705 L 449 367.2692829702554 L 450 367.04023898896844 L 451 366.8140842242303 L 452 366.5908373663889 L 453 366.37051686547056 L 454 366.1531409296558 L 455 365.9387275237742 L 456 365.72729436782 L 457 365.51885893548734 L 458 365.31343845272636 L 459 365.1110498963196 L 460 364.91170999247885 L 461 364.71543521546283 L 462 364.5222417862157 L 463 364.33214567102675 L 464 364.14516258021047 L 465 363.96130796680836 L 466 363.78059702531203 L 467 363.60304469040716 L 468 363.42866563573926 L 469 363.2574742727014 L 470 363.0894847492425 L 471 362.92471094869876 L 472 362.76316648864577 L 473 362.60486471977345 L 474 362.44981872478246 L 475 362.2980413173033 L 476 362.14954504083676 L 477 362.004342167718 L 478 361.86244469810174 L 479 361.72386435897096 L 480 361.58861260316723 L 481 361.4567006084447 L 482 361.328139276546 L 483 361.20293923230145 L 484 361.0811108227508 L 485 360.96266411628847 L 486 360.8476089018309 L 487 360.735954688008 L 488 360.6277107023774 L 489 360.5228858906612 L 490 360.4214889160074 L 491 360.3235281582736 L 492 360.22901171333433 L 493 360.1379473924123 L 494 360.05034272143257 L 495 359.9662049404008 L 496 359.8855410028047 L 497 359.8083575750395 L 498 359.73466103585685 L 499 359.664457475838 L 500 359.59775269689004 L 501 359.53455221176665 L 502 359.47486124361245 L 503 359.4186847255313 L 504 359.36602730017876 L 505 359.31689331937815 L 506 359.271286843761 L 507 359.2292116424317 L 508 359.1906711926556 L 509 359.1556686795719 L 510 359.1242069959303 L 511 359.0962887418521 L 512 359.07191622461517 L 513 359.0510914584632 L 514 359.0338161644394 L 515 359.0200917702442 L 516 359.0099194101173 L 517 359.00329992474366 L 518 359.0002338611846 L 519 359.00072147283197 L 520 359.00476271938754 L 521 359.0123572668664 L 522 359.0235044876242 L 523 359.0382034604095 L 524 359.05645297043935 L 525 359.0782515095003 L 526 359.1035972760726 L 527 359.1324881754792 L 528 359.16492182005885 L 529 359.2008955293636 L 530 359.2404063303801 L 531 359.2834509577753 L 532 359.33002585416654 L 533 359.38012717041534 L 534 359.4337507659455 L 535 359.49089220908553 L 536 359.5515467774346 L 537 359.615709458253 L 538 359.68337494887624 L 539 359.7545376571537 L 540 359.82919170191025 L 541 359.9073309134326 L 542 359.9889488339791 L 543 360.07403871831366 L 544 360.1625935342627 L 545 360.25460596329697 L 546 360.35006840113573 L 547 360.44897295837563 L 548 360.55131146114275 L 549 360.6570754517677 L 550 360.76625618948503 L 551 360.8788446511555 L 552 360.9948315320116 L 553 361.11420724642664 L 554 361.23696192870716 L 555 361.36308543390794 L 556 361.49256733867054 L 557 361.6253969420848 L 558 361.7615632665732 L 559 361.90105505879797 L 560 362.04386079059117 L 561 362.1899686599075 L 562 362.33936659179966 L 563 362.49204223941615 L 564 362.64798298502166 L 565 362.80717594104016 L 566 362.9696079511195 L 567 363.1352655912191 L 568 363.30413517071923 L 569 363.4762027335524 L 570 363.65145405935675 L 571 363.8298746646514 L 572 364.0114498040334 L 573 364.1961644713962 L 574 364.38400340116993 L 575 364.574951069583 L 576 364.76899169594503 L 577 364.96610924395117 L 578 365.1662874230071 L 579 365.3695096895755 L 580 365.5757592485436 L 581 365.78501905461053 L 582 365.99727181369656 L 583 366.21249998437224 L 584 366.43068577930796 L 585 366.6518111667439 L 586 366.87585787198066 L 587 367.102807378889 L 588 367.3326409314406 L 589 367.56533953525775 L 590 367.80088395918335 L 591 368.03925473687013 L 592 368.2804321683895 L 593 368.52439632185957 L 594 368.77112703509255 L 595 369.02060391726076 L 596 369.2728063505821 L 597 369.52771349202374 L 598 369.7853042750249 L 599 370.0455574112377 L 600 370.3084513922867 L 601 370.57396449154623 L 602 370.842074765936 L 603 371.1127600577347 L 604 371.3859979964112 L 605 371.66176600047316 L 606 371.94004127933334 L 607 372.2208008351933 L 608 372.50402146494366 L 609 372.7896797620821 L 610 373.0777521186474 L 611 373.3682147271708 L 612 373.6610435826434 L 613 373.9562144844999 L 614 374.25370303861905 L 615 374.55348465933906 L 616 374.8555345714902 L 617 375.1598278124416 L 618 375.46633923416476 L 619 375.7750435053117 L 620 376.0859151133085 L 621 376.3989283664635 L 622 376.7140573960911 L 623 377.03127615864923 L 624 377.3505584378917 L 625 377.67187784703503 L 626 377.9952078309391 L 627 378.3205216683016 L 628 378.64779247386656 L 629 378.97699320064635 L 630 379.3080966421566 L 631 379.6410754346651 L 632 379.9759020594527 L 633 380.3125488450884 L 634 380.65098796971506 L 635 380.99119146335 L 636 381.3331312101955 L 637 381.676778950963 L 638 382.02210628520845 L 639 382.3690846736792 L 640 382.7176854406728 L 641 383.0678797764071 L 642 383.4196387394007 L 643 383.77293325886507 L 644 384.1277341371072 L 645 384.4840120519424 L 646 384.8417375591177 L 647 385.2008810947451 L 648 385.56141297774525 L 649 385.92330341229984 L 650 386.2865224903145 L 651 386.65104019389037 L 652 387.01682639780483 L 653 387.38385087200135 L 654 387.75208328408763 L 655 388.12149320184244 L 656 388.4920500957309 L 657 388.8637233414272 L 658 389.23648222234567 L 659 389.61029593217944 L 660 389.98513357744616 L 661 390.3609641800415 L 662 390.737756679799 L 663 391.115479937057 L 664 391.49410273523245 L 665 391.87359378340045 L 666 392.2539217188805 L 667 392.63505510982833 L 668 393.0169624578334 L 669 393.3996122005225 L 670 393.7829727141676 L 671 394.16701231629986 L 672 394.55169926832787 L 673 394.9370017781604 L 674 395.3228880028341 L 675 395.7093260511452 L 676 396.09628398628473 L 677 396.4837298284784 L 678 396.8716315576291 L 679 397.2599571159636 L 680 397.64867441068145 L 681 398.0377513166077 L 682 398.42715567884767 L 683 398.8168553154442 L 684 399.2068180200376 L 685 399.5970115645271 L 686 399.9874037017345 L 687 400.3779621680689 L 688 400.76865468619354 L 689 401.1594489676928 L 690 401.55031271574114 L 691 401.9412136277719 L 692 402.33211939814703 L 693 402.72299772082704 L 694 403.11381629204084 L 695 403.5045428129554 L 696 403.89514499234497 L 697 404.2855905492602 L 698 404.6758472156954 L 699 405.06588273925564 L 700 405.4556648858221 L 701 405.8451614422162 L 702 406.2343402188614 L 703 406.6231690524441 L 704 407.0116158085712 L 705 407.39964838442614 L 706 407.78723471142183 L 707 408.17434275785104 L 708 408.5609405315335 L 709 408.94699608246015 L 710 409.3324775054332 L 711 409.71735294270326 L 712 410.10159058660196 L 713 410.48515868217083 L 714 410.86802552978565 L 715 411.25015948777605 L 716 411.6315289750407 L 717 412.01210247365725 L 718 412.39184853148697 L 719 412.7707357647743 L 720 413.14873286074055 L 721 413.52580858017126 L 722 413.90193175999855 L 723 414.2770713158762 L 724 414.65119624474863 L 725 415.02427562741315 L 726 415.39627863107523 L 727 415.7671745118969 L 728 416.1369326175369 L 729 416.5055223896847 L 730 416.8729133665854 L 731 417.2390751855575 L 732 417.60397758550204 L 733 417.9675904094036 L 734 418.3298836068225 L 735 418.6908272363783 L 736 419.0503914682246 L 737 419.40854658651375 L 738 419.765262991853 L 739 420.12051120375077 L 740 420.4742618630529 L 741 420.8264857343691 L 742 421.1771537084889 L 743 421.52623680478774 L 744 421.8737061736215 L 745 422.21953309871117 L 746 422.5636889995161 L 747 422.90614543359567 L 748 423.2468740989602 L 749 423.5858468364097 L 750 423.9230356318614 L 751 424.2584126186646 L 752 424.5919500799037 L 753 424.9236204506893 L 754 425.2533963204357 L 755 425.5812504351263 L 756 425.9071556995666 L 757 426.23108517962254 L 758 426.5530121044471 L 759 426.8729098686926 L 760 427.1907520347093 L 761 427.50651233473053 L 762 427.8201646730435 L 763 428.1316831281458 L 764 428.4410419548879 L 765 428.7482155866007 L 766 429.05317863720853 L 767 429.3559059033269 L 768 429.656372366346 L 769 429.9545531944977 L 770 430.25042374490795 L 771 430.5439595656336 L 772 430.83513639768313 L 773 431.12393017702107 L 774 431.41031703655744 L 775 431.6942733081197 L 776 431.97577552440896 L 777 432.25480042093955 L 778 432.5313249379615 L 779 432.80532622236626 L 780 433.0767816295755 L 781 433.3456687254127 L 782 433.6119652879567 L 783 433.87564930937884 L 784 434.1366989977612 L 785 434.39509277889806 L 786 434.65080929807846 L 787 434.9038274218513 L 788 435.154126239772 L 789 435.40168506613014 L 790 435.64648344165954 L 791 435.88850113522886 L 792 436.1277181455136 L 793 436.364114702649 L 794 436.597671269864 L 795 436.82836854509605 L 796 437.05618746258585 L 797 437.2811091944534 L 798 437.5031151522538 L 799 437.72218698851367 L 800 437.93830659824715 L 801 438.15145612045256 L 802 438.3616179395882 L 803 438.5687746870283 L 804 438.77290924249843 L 805 438.9740047354903 L 806 439.1720445466563 L 807 439.3670123091824 L 808 439.55889191014154 L 809 439.7476674918246 L 810 439.9333234530512 L 811 440.1158444504592 L 812 440.29521539977253 L 813 440.47142147704795 L 814 440.64444811989995 L 815 440.8142810287045 L 816 440.98090616778063 L 817 441.14430976655063 L 818 441.30447832067773 L 819 441.4613985931826 L 820 441.6150576155369 L 821 441.76544268873545 L 822 441.9125413843453 L 823 442.0563415455332 L 824 442.19683128807026 L 825 442.33399900131377 L 826 442.4678333491672 L 827 442.5983232710169 L 828 442.72545798264605 L 829 442.8492269771259 L 830 442.9696200256846 L 831 443.08662717855185 L 832 443.2002387657816 L 833 443.3104453980511 L 834 443.417237967437 L 835 443.520607648168 L 836 443.6205458973539 L 837 443.7170444556923 L 838 443.81009534815064 L 839 443.89969088462544 L 840 443.9858236605779 L 841 444.0684865576458 L 842 444.14767274423195 L 843 444.22337567606826 L 844 444.29558909675734 L 845 444.36430703828887 L 846 444.42952382153334 L 847 444.491234056711 L 848 444.54943264383763 L 849 444.6041147731456 L 850 444.65527592548204 L 851 444.70291187268145 L 852 444.7470186779159 L 853 444.78759269601994 L 854 444.82463057379204 L 855 444.85812925027165 L 856 444.8880859569922 L 857 444.9144982182098 L 858 444.937363851108 L 859 444.95668096597814 L 860 444.9724479663754 L 861 444.9846635492508 L 862 444.99332670505913 L 863 444.9984367178419 L 864 444.999993165287 L 865 444.99799591876325 L 866 444.9924451433312 L 867 444.98334129772957 L 868 444.970685134337 L 869 444.9544776991102 L 870 444.93472033149743 L 871 444.91141466432776 L 872 444.8845626236761 L 873 444.85416642870416 L 874 444.82022859147673 L 875 444.7827519167545 L 876 444.74173950176197 L 877 444.6971947359316 L 878 444.6491213006236 L 879 444.5975231688219 L 880 444.5424046048054 L 881 444.48377016379607 L 882 444.42162469158205 L 883 444.3559733241174 L 884 444.2868214870976 L 885 444.2141748955112 L 886 444.1380395531673 L 887 444.0584217521997 L 888 443.97532807254663 L 889 443.888765381407 L 890 443.798740832673 L 891 443.70526186633873 L 892 443.6083362078854 L 893 443.5079718676427 L 894 443.40417714012733 L 895 443.2969606033567 L 896 443.1863311181407 L 897 443.07229782734885 L 898 442.9548701551553 L 899 442.83405780625947 L 900 442.70987076508425 L 901 442.58231929495076 L 902 442.45141393723026 L 903 442.31716551047276 L 904 442.17958510951325 L 905 442.0386841045545 L 906 441.8944741402273 L 907 441.7469671346287 L 908 441.59617527833615 L 909 441.44211103340075 L 910 441.2847871323171 L 911 441.1242165769709 L 912 440.9604126375646 L 913 440.7933888515206 L 914 440.6231590223626 L 915 440.4497372185745 L 916 440.2731377724382 L 917 440.09337527884867 L 918 439.91046459410796 L 919 439.7244208346976 L 920 439.53525937602893 L 921 439.3429958511727 L 922 439.14764614956704 L 923 438.94922641570406 L 924 438.74775304779604 L 925 438.54324269641995 L 926 438.33571226314115 L 927 438.12517889911703 L 928 437.91166000367946 L 929 437.69517322289647 L 930 437.4757364481144 L 931 437.253367814479 L 932 437.0280856994367 L 933 436.79990872121584 L 934 436.56885573728823 L 935 436.3349458428101 L 936 436.0981983690446 L 937 435.858632881764 L 938 435.6162691796324 L 939 435.37112729256995 L 940 435.1232274800973 L 941 434.872590229661 L 942 434.6192362549408 L 943 434.3631864941376 L 944 434.1044621082428 L 945 433.8430844792898 L 946 433.57907520858686 L 947 433.31245611493165 L 948 433.0432492328082 L 949 432.77147681056607 L 950 432.49716130858127 L 951 432.2203253974003 L 952 431.9409919558665 L 953 431.65918406922924 L 954 431.3749250272362 L 955 431.0882383222084 L 956 430.7991476470986 L 957 430.50767689353387 L 958 430.21385014984014 L 959 429.91769169905217 L 960 429.6192260169065 L 961 429.3184777698184 L 962 429.0154718128438 L 963 428.71023318762497 L 964 428.4027871203207 L 965 428.09315901952186 L 966 427.7813744741516 L 967 427.4674592513502 L 968 427.1514392943458 L 969 426.83334072031033 L 970 426.5131898182011 L 971 426.1910130465882 L 972 425.8668370314677 L 973 425.5406885640612 L 974 425.2125945986019 L 975 424.88258225010696 L 976 424.5506787921362 L 977 424.21691165453854 L 978 423.88130842118505 L 979 423.543896827689 L 980 423.20470475911424 L 981 422.86376024766986 L 982 422.5210914703942 L 983 422.176726746826 L 984 421.83069453666354 L 985 421.4830234374133 L 986 421.1337421820262 L 987 420.78287963652275 L 988 420.43046479760784 L 989 420.07652679027433 L 990 419.7210948653955 L 991 419.36419839730854 L 992 419.00586688138605 L 993 418.646129931599 L 994 418.285017278069 L 995 417.9225587646116 L 996 417.55878434626936 L 997 417.1937240868369 L 998 416.8274081563757 L 999 416.4598668287212 L 1000 416.0911304789804 L 1001 415.72122958102216 L 1002 415.3501947049578 L 1003 414.9780565146156 L 1004 414.60484576500625 L 1005 414.23059329978065 L 1006 413.8553300486818 L 1007 413.4790870249878 L 1008 413.1018953229493 L 1009 412.7237861152197 L 1010 412.3447906502784 L 1011 411.96494024984906 L 1012 411.58426630631067 L 1013 411.2028002801028 L 1014 410.82057369712635 L 1015 410.4376181461376 L 1016 410.05396527613755 L 1017 409.6696467937566 L 1018 409.2846944606343 L 1019 408.8991400907936 L 1020 408.51301554801273 L 1021 408.1263527431912 L 1022 407.73918363171254 L 1023 407.35154021080365 L 1024 406.96345451689035 L 1025 406.57495862294934 L 1026 406.1860846358584 L 1027 405.7968646937422 L 1028 405.40733096331644 L 1029 405.01751563722985 L 1030 404.62745093140313 L 1031 404.2371690823668 L 1032 403.846702344597 L 1033 403.4560829878498 L 1034 403.06534329449437 L 1035 402.674515556845 L 1036 402.2836320744921 L 1037 401.8927251516334 L 1038 401.5018270944036 L 1039 401.1109702082047 L 1040 400.7201867950363 L 1041 400.3295091508259 L 1042 399.9389695627596 L 1043 399.54860030661416 L 1044 399.15843364408954 L 1045 398.7685018201422 L 1046 398.37883706032085 L 1047 397.9894715681029 L 1048 397.60043752223294 L 1049 397.2117670740636 L 1050 396.8234923448984 L 1051 396.4356454233368 L 1052 396.0482583626227 L 1053 395.66136317799527 L 1054 395.27499184404275 L 1055 394.8891762920605 L 1056 394.5039484074119 L 1057 394.1193400268927 L 1058 393.7353829361006 L 1059 393.3521088668083 L 1060 392.96954949434024 L 1061 392.5877364349559 L 1062 392.20670124323624 L 1063 391.826475409476 L 1064 391.4470903570816 L 1065 391.06857743997347 L 1066 390.69096793999546 L 1067 390.3142930643295 L 1068 389.93858394291595 L 1069 389.56387162588175 L 1070 389.19018708097377 L 1071 388.81756119099936 L 1072 388.44602475127465 L 1073 388.07560846707906 L 1074 387.70634295111773 L 1075 387.3382587209918 L 1076 386.97138619667606 L 1077 386.605755698005 L 1078 386.24139744216706 L 1079 385.8783415412076 L 1080 385.51661799953956 L 1081 385.1562567114649 L 1082 384.79728745870307 L 1083 384.4397399079301 L 1084 384.0836436083269 L 1085 383.7290279891371 L 1086 383.3759223572346 L 1087 383.0243558947023 L 1088 382.67435765641943 L 1089 382.3259565676612 L 1090 381.97918142170766 L 1091 381.6340608774643 L 1092 381.2906234570939 L 1093 380.94889754365875 L 1094 380.6089113787753 L 1095 380.27069306028034 L 1096 379.93427053990854 L 1097 379.59967162098235 L 1098 379.26692395611457 L 1099 378.9360550449229 L 1100 378.6070922317571 L 1101 378.2800627034392 L 1102 377.954993487017 L 1103 377.63191144752983 L 1104 377.3108432857888 L 1105 376.99181553617 L 1106 376.6748545644216 L 1107 376.3599865654848 L 1108 376.0472375613291 L 1109 375.73663339880153 L 1110 375.4281997474909 L 1111 375.12196209760606 L 1112 374.8179457578693 L 1113 374.51617585342495 L 1114 374.2166773237629 L 1115 373.9194749206571 L 1116 373.6245932061206 L 1117 373.33205655037506 L 1118 373.0418891298372 L 1119 372.7541149251204 L 1120 372.468757719053 L 1121 372.18584109471266 L 1122 371.9053884334777 L 1123 371.6274229130942 L 1124 371.3519675057612 L 1125 371.0790449762315 L 1126 370.8086778799307 L 1127 370.54088856109314 L 1128 370.275699150915 L 1129 370.0131315657255 L 1130 369.75320750517557 L 1131 369.49594845044476 L 1132 369.2413756624654 L 1133 368.98951018016595 L 1134 368.74037281873234 L 1135 368.4939841678872 L 1136 368.2503645901888 L 1137 368.0095342193478 L 1138 367.7715129585636 L 1139 367.5363204788793 L 1140 367.30397621755606 L 1141 367.07449937646663 L 1142 366.84790892050876 L 1143 366.6242235760372 L 1144 366.4034618293169 L 1145 366.1856419249947 L 1146 365.9707818645914 L 1147 365.7588994050147 L 1148 365.550012057091 L 1149 365.3441370841186 L 1150 365.14129150044084 L 1151 364.9414920700402 L 1152 364.7447553051525 L 1153 364.5510974649025 L 1154 364.3605345539603 L 1155 364.1730823212182 L 1156 363.9887562584896 L 1157 363.80757159922854 L 1158 363.6295433172706 L 1159 363.45468612559563 L 1160 363.28301447511177 L 1161 363.11454255346086 L 1162 362.94928428384645 L 1163 362.7872533238827 L 1164 362.62846306446573 L 1165 362.4729266286671 L 1166 362.3206568706493 L 1167 362.1716663746031 L 1168 362.0259674537078 L 1169 361.88357214911366 L 1170 361.74449222894657 L 1171 361.60873918733574 L 1172 361.4763242434634 L 1173 361.3472583406381 L 1174 361.2215521453899 L 1175 361.09921604658894 L 1176 360.98026015458703 L 1177 360.8646943003819 L 1178 360.75252803480487 L 1179 360.64377062773127 L 1180 360.5384310673148 L 1181 360.4365180592442 L 1182 360.33804002602415 L 1183 360.24300510627904 L 1184 360.15142115408037 L 1185 360.06329573829765 L 1186 359.978636141973 L 1187 359.89744936171905 L 1188 359.8197421071409 L 1189 359.7455208002814 L 1190 359.6747915750906 L 1191 359.6075602769188 L 1192 359.5438324620333 L 1193 359.48361339715956 L 1194 359.42690805904533 L 1195 359.3737211340501 L 1196 359.324057017757 L 1197 359.2779198146104 L 1198 359.2353133375759 L 1199 359.19624110782576 L 1200 359.16070635444765 L 1201 359.1287120141778 L 1202 359.1002607311583 L 1203 359.0753548567187 L 1204 359.0539964491816 L 1205 359.0361872736925 L 1206 359.0219288020739 L 1207 359.01122221270373 L 1208 359.004068390418 L 1209 359.0004679264377 L 1210 359.00042111831976 L 1211 359.00392796993253 L 1212 359.0109881914556 L 1213 359.0216011994037 L 1214 359.0357661166746 L 1215 359.05348177262215 L 1216 359.07474670315264 L 1217 359.09955915084583 L 1218 359.1279170651004 L 1219 359.15981810230323 L 1220 359.195259626023 L 1221 359.2342387072285 L 1222 359.27675212453005 L 1223 359.3227963644465 L 1224 359.3723676216948 L 1225 359.4254617995052 L 1226 359.48207450995915 L 1227 359.54220107435265 L 1228 359.60583652358224 L 1229 359.6729755985562 L 1230 359.7436127506288 L 1231 359.81774214205916 L 1232 359.8953576464934 L 1233 359.9764528494712 L 1234 360.06102104895587 L 1235 360.14905525588813 L 1236 360.2405481947638 L 1237 360.33549230423506 L 1238 360.4338797377353 L 1239 360.5357023641277 L 1240 360.64095176837714 L 1241 360.7496192522456 L 1242 360.8616958350112 L 1243 360.9771722542102 L 1244 361.09603896640255 L 1245 361.2182861479608 L 1246 361.3439036958816 L 1247 361.47288122862085 L 1248 361.6052080869519 L 1249 361.74087333484596 L 1250 361.87986576037633 L 1251 362.0221738766448 L 1252 362.16778592273096 L 1253 362.3166898646644 L 1254 362.4688733964189 L 1255 362.62432394092974 L 1256 362.78302865113295 L 1257 362.9449744110271 L 1258 363.11014783675716 L 1259 363.278535277721 L 1260 363.45012281769687 L 1261 363.62489627599405 L 1262 363.8028412086246 L 1263 363.98394290949705 L 1264 364.1681864116316 L 1265 364.35555648839755 L 1266 364.5460376547712 L 1267 364.7396141686158 L 1268 364.93627003198253 L 1269 365.13598899243266 L 1270 365.3387545443806 L 1271 365.5445499304582 L 1272 365.7533581428994 L 1273 365.9651619249459 L 1274 366.17994377227365 L 1275 366.39768593443887 L 1276 366.6183704163455 L 1277 366.8419789797323 L 1278 367.06849314467985 L 1279 367.2978941911382 L 1280 367.5301631604738 L 1281 367.7652808570362 L 1282 368.0032278497447 L 1283 368.24398447369396 L 1284 368.48753083177934 L 1285 368.73384679634137 L 1286 368.98291201082884 L 1287 369.23470589148155 L 1288 369.4892076290312 L 1289 369.74639619042125 L 1290 370.00625032054495 L 1291 370.26874854400234 L 1292 370.53386916687475 L 1293 370.8015902785178 L 1294 371.0718897533722 L 1295 371.3447452527922 L 1296 371.62013422689176 L 1297 371.8980339164084 L 1298 372.17842135458375 L 1299 372.46127336906176 L 1300 372.74656658380405 L 1301 373.0342774210213 L 1302 373.324382103122 L 1303 373.6168566546779 L 1304 373.9116769044049 L 1305 374.2088184871607 L 1306 374.5082568459591 L 1307 374.8099672339986 L 1308 375.1139247167081 L 1309 375.42010417380754 L 1310 375.7284803013838 L 1311 376.03902761398206 L 1312 376.35172044671185 L 1313 376.66653295736825 L 1314 376.98343912856774 L 1315 377.3024127698979 L 1316 377.6234275200823 L 1317 377.9464568491592 L 1318 378.2714740606735 L 1319 378.5984522938836 L 1320 378.9273645259813 L 1321 379.2581835743246 L 1322 379.5908820986846 L 1323 379.9254326035048 L 1324 380.2618074401737 L 1325 380.5999788093093 L 1326 380.9399187630572 L 1327 381.2815992073998 L 1328 381.6249919044782 L 1329 381.9700684749262 L 1330 382.31680040021547 L 1331 382.66515902501214 L 1332 383.0151155595457 L 1333 383.3666410819876 L 1334 383.71970654084174 L 1335 384.07428275734577 L 1336 384.43034042788173 L 1337 384.7878501263987 L 1338 385.14678230684405 L 1339 385.50710730560536 L 1340 385.8687953439624 L 1341 386.2318165305476 L 1342 386.59614086381634 L 1343 386.96173823452733 L 1344 387.3285784282298 L 1345 387.69663112776095 L 1346 388.0658659157521 L 1347 388.4362522771416 L 1348 388.807759601697 L 1349 389.1803571865453 L 1350 389.55401423870956 L 1351 389.9286998776544 L 1352 390.30438313783793 L 1353 390.68103297127055 L 1354 391.05861825008117 L 1355 391.4371077690899 L 1356 391.8164702483865 L 1357 392.19667433591593 L 1358 392.57768861006923 L 1359 392.95948158228026 L 1360 393.342021699628 L 1361 393.7252773474446 L 1362 394.1092168519276 L 1363 394.49380848275814 L 1364 394.8790204557227 L 1365 395.26482093534025 L 1366 395.6511780374933 L 1367 396.03805983206274 L 1368 396.42543434556666 L 1369 396.81326956380303 L 1370 397.2015334344952 L 1371 397.5901938699409 L 1372 397.9792187496643 L 1373 398.3685759230703 L 1374 398.7582332121016 L 1375 399.1481584138984 L 1376 399.5383193034593 L 1377 399.9286836363046 L 1378 400.3192191511416 L 1379 400.7098935725301 L 1380 401.1006746135502 L 1381 401.49152997847057 L 1382 401.88242736541736 L 1383 402.2733344690438 L 1384 402.6642189832004 L 1385 403.0550486036041 L 1386 403.4457910305089 L 1387 403.83641397137455 L 1388 404.2268851435358 L 1389 404.61717227686995 L 1390 405.00724311646434 L 1391 405.3970654252813 L 1392 405.7866069868232 L 1393 406.1758356077941 L 1394 406.56471912076097 L 1395 406.9532253868119 L 1396 407.3413222982121 L 1397 407.7289777810575 L 1398 408.11615979792566 L 1399 408.5028363505231 L 1400 408.88897548232995 L 1401 409.2745452812412 L 1402 409.6595138822036 L 1403 410.0438494698493 L 1404 410.42752028112557 L 1405 410.8104946079191 L 1406 411.19274079967704 L 1407 411.5742272660228 L 1408 411.9549224793662 L 1409 412.33479497750955 L 1410 412.7138133662479 L 1411 413.0919463219632 L 1412 413.46916259421295 L 1413 413.84543100831354 L 1414 414.2207204679159 L 1415 414.5949999575758 L 1416 414.96823854531715 L 1417 415.3404053851879 L 1418 415.7114697198101 L 1419 416.0814008829208 L 1420 416.4501683019072 L 1421 416.817741500333 L 1422 417.1840901004572 L 1423 417.54918382574436 L 1424 417.91299250336726 L 1425 418.2754860667001 L 1426 418.6366345578034 L 1427 418.9964081299001 L 1428 419.3547770498418 L 1429 419.71171170056635 L 1430 420.06718258354556 L 1431 420.42116032122277 L 1432 420.7736156594409 L 1433 421.12451946986033 L 1434 421.47384275236584 L 1435 421.82155663746335 L 1436 422.1676323886663 L 1437 422.51204140486976 L 1438 422.85475522271463 L 1439 423.19574551894016 L 1440 423.5349841127241 L 1441 423.8724429680121 L 1442 424.20809419583463 L 1443 424.541910056612 L 1444 424.87386296244625 L 1445 425.20392547940213 L 1446 425.53207032977343 L 1447 425.8582703943378 L 1448 426.18249871459795 L 1449 426.5047284950094 L 1450 426.8249331051952 L 1451 427.1430860821468 L 1452 427.4591611324106 L 1453 427.7731321342617 L 1454 428.0849731398621 L 1455 428.3946583774052 L 1456 428.7021622532463 L 1457 429.00745935401665 L 1458 429.3105244487248 L 1459 429.6113324908412 L 1460 429.90985862036837 L 1461 430.20607816589506 L 1462 430.4999666466359 L 1463 430.7914997744539 L 1464 431.080653455868 L 1465 431.36740379404444 L 1466 431.6517270907713 L 1467 431.93359984841726 L 1468 432.21299877187363 L 1469 432.48990077047927 L 1470 432.76428295992906 L 1471 433.0361226641652 L 1472 433.3053974172511 L 1473 433.57208496522827 L 1474 433.83616326795527 L 1475 434.09761050092925 L 1476 434.3564050570898 L 1477 434.6125255486042 L 1478 434.8659508086355 L 1479 435.11665989309165 L 1480 435.3646320823563 L 1481 435.6098468830011 L 1482 435.85228402947985 L 1483 436.09192348580257 L 1484 436.32874544719186 L 1485 436.5627303417197 L 1486 436.79385883192464 L 1487 437.02211181641013 L 1488 437.24747043142304 L 1489 437.46991605241277 L 1490 437.6894302955702 L 1491 437.9059950193475 L 1492 438.11959232595666 L 1493 438.3302045628493 L 1494 438.53781432417543 L 1495 438.74240445222165 L 1496 438.94395803882935 L 1497 439.142458426792 L 1498 439.3378892112319 L 1499 439.5302342409558 L 1500 439.7194776197897 L 1501 439.9056037078926 L 1502 440.0885971230492 L 1503 440.26844274194093 L 1504 440.44512570139574 L 1505 440.6186313996168 L 1506 440.78894549738897 L 1507 440.95605391926387 L 1508 441.11994285472326 L 1509 441.28059875932036 L 1510 441.43800835579896 L 1511 441.5921586351913 L 1512 441.7430368578925 L 1513 441.8906305547138 L 1514 442.0349275279131 L 1515 442.1759158522028 L 1516 442.3135838757355 L 1517 442.447920221067 L 1518 442.5789137860965 L 1519 442.706553744984 L 1520 442.83082954904523 L 1521 442.9517309276234 L 1522 443.0692478889377 L 1523 443.1833707209096 L 1524 443.294089991965 L 1525 443.40139655181395 L 1526 443.50528153220677 L 1527 443.605736347667 L 1528 443.702752696201 L 1529 443.796322559984 L 1530 443.8864382060225 L 1531 443.97309218679385 L 1532 444.05627734086136 L 1533 444.13598679346626 L 1534 444.2122139570958 L 1535 444.28495253202783 L 1536 444.3541965068512 L 1537 444.41994015896285 L 1538 444.48217805504055 L 1539 444.5409050514918" stroke-linecap="round" stroke-linejoin="round" stroke-miterlimit="10"/></g></svg>