<?xml version="1.0" encoding="UTF-8" standalone="no"?>
<svg
   xmlns:dc="http://purl.org/dc/elements/1.1/"
   xmlns:cc="http://creativecommons.org/ns#"
   xmlns:rdf="http://www.w3.org/1999/02/22-rdf-syntax-ns#"
   xmlns:svg="http://www.w3.org/2000/svg"
   xmlns="http://www.w3.org/2000/svg"
   xmlns:sodipodi="http://sodipodi.sourceforge.net/DTD/sodipodi-0.dtd"
   xmlns:inkscape="http://www.inkscape.org/namespaces/inkscape"
   shape-rendering="geometricPrecision"
   text-rendering="geometricPrecision"
   image-rendering="optimizeQuality"
   fill-rule="evenodd"
   clip-rule="evenodd"
   viewBox="0 0 64 63.999999"
   version="1.1"
   id="svg4"
   sodipodi:docname="center_focus.svg"
   width="64"
   height="64"
   inkscape:version="1.0.2-2 (e86c870879, 2021-01-15)"
   inkscape:export-filename="D:\RC\Projects\Idea\complex\res\image\center_focus_accent_64.png"
   inkscape:export-xdpi="96"
   inkscape:export-ydpi="96">
  <metadata
     id="metadata10">
    <rdf:RDF>
      <cc:Work
         rdf:about="">
        <dc:format>image/svg+xml</dc:format>
        <dc:type
           rdf:resource="http://purl.org/dc/dcmitype/StillImage" />
        <dc:title />
      </cc:Work>
    </rdf:RDF>
  </metadata>
  <defs
     id="defs8" />
  <sodipodi:namedview
     pagecolor="#ffffff"
     bordercolor="#666666"
     borderopacity="1"
     objecttolerance="10"
     gridtolerance="10"
     guidetolerance="10"
     inkscape:pageopacity="0"
     inkscape:pageshadow="2"
     inkscape:window-width="1920"
     inkscape:window-height="991"
     id="namedview6"
     showgrid="false"
     inkscape:zoom="6.6289371"
     inkscape:cx="31.756655"
     inkscape:cy="48.84659"
     inkscape:window-x="-9"
     inkscape:window-y="-9"
     inkscape:window-maximized="1"
     inkscape:current-layer="svg4"
     inkscape:document-rotation="0" />
  <path
     id="path849"
     style="opacity:0.991892;fill:#ffa0db;fill-opacity:1;stroke:none;stroke-width:136.441;stroke-miterlimit:4;stroke-dasharray:none;stroke-dashoffset:20;stroke-opacity:1"
     d="M 11,41 H 5 v 12 c 0,3.3 2.7,6 6,6 H 23 V 53 H 11 Z M 11,11 H 23 V 5 H 11 C 7.7,5 5,7.7 5,11 v 12 h 6 z M 53,5 H 41 v 6 h 12 v 12 h 6 V 11 C 59,7.7 56.3,5 53,5 Z m 0,48 H 41 v 6 h 12 c 3.3,0 6,-2.7 6,-6 V 41 H 53 Z M 32,23 c -4.98,0 -9,4.02 -9,9 0,4.98 4.02,9 9,9 4.98,0 9,-4.02 9,-9 0,-4.98 -4.02,-9 -9,-9 z" />
</svg>
