<?xml version="1.0" encoding="UTF-8" standalone="no"?>
<svg
   xmlns:dc="http://purl.org/dc/elements/1.1/"
   xmlns:cc="http://creativecommons.org/ns#"
   xmlns:rdf="http://www.w3.org/1999/02/22-rdf-syntax-ns#"
   xmlns:svg="http://www.w3.org/2000/svg"
   xmlns="http://www.w3.org/2000/svg"
   xmlns:sodipodi="http://sodipodi.sourceforge.net/DTD/sodipodi-0.dtd"
   xmlns:inkscape="http://www.inkscape.org/namespaces/inkscape"
   shape-rendering="geometricPrecision"
   text-rendering="geometricPrecision"
   image-rendering="optimizeQuality"
   fill-rule="evenodd"
   clip-rule="evenodd"
   viewBox="0 0 64 63.999999"
   version="1.1"
   id="svg4"
   sodipodi:docname="points.svg"
   width="64"
   height="64"
   inkscape:version="1.0.2-2 (e86c870879, 2021-01-15)"
   inkscape:export-filename="D:\RC\Projects\Idea\complex\res\image\points_accent_64.png"
   inkscape:export-xdpi="96"
   inkscape:export-ydpi="96">
  <metadata
     id="metadata10">
    <rdf:RDF>
      <cc:Work
         rdf:about="">
        <dc:format>image/svg+xml</dc:format>
        <dc:type
           rdf:resource="http://purl.org/dc/dcmitype/StillImage" />
        <dc:title />
      </cc:Work>
    </rdf:RDF>
  </metadata>
  <defs
     id="defs8" />
  <sodipodi:namedview
     pagecolor="#ffffff"
     bordercolor="#666666"
     borderopacity="1"
     objecttolerance="10"
     gridtolerance="10"
     guidetolerance="10"
     inkscape:pageopacity="0"
     inkscape:pageshadow="2"
     inkscape:window-width="1920"
     inkscape:window-height="991"
     id="namedview6"
     showgrid="false"
     inkscape:zoom="6.6289371"
     inkscape:cx="31.756655"
     inkscape:cy="48.84659"
     inkscape:window-x="-9"
     inkscape:window-y="-9"
     inkscape:window-maximized="1"
     inkscape:current-layer="svg4"
     inkscape:document-rotation="0" />
  <path
     id="path849"
     style="opacity:0.991892;fill:none;fill-opacity:1;stroke:#ffa0db;stroke-width:6.794;stroke-miterlimit:4;stroke-dasharray:none;stroke-dashoffset:20;stroke-opacity:1"
     d="M 54.319032,43.197217 C 52.021734,40.893694 48.694697,40.33085 45.85677,41.421399 L 39.344036,34.89102 C 40.44226,32.056057 39.88842,28.727509 37.591122,26.423985 35.293821,24.120461 31.966785,23.557617 29.128858,24.648167 L 22.616125,18.11779 C 23.714348,15.282823 23.16051,11.954276 20.863209,9.650752 17.785273,6.5644781 12.782416,6.5577296 9.6961186,9.635692 6.6098212,12.713651 6.6030355,17.716506 9.6809686,20.80278 11.97827,23.106306 15.305305,23.669148 18.14323,22.578602 l 6.512732,6.530379 c -1.09822,2.834963 -0.544381,6.163508 1.75292,8.467032 2.297298,2.303525 5.624334,2.866368 8.462258,1.775819 l 6.512734,6.530379 c -1.098222,2.834966 -0.54438,6.163512 1.752919,8.467034 3.077935,3.086275 8.08079,3.093025 11.167088,0.01507 3.086297,-3.077958 3.093086,-8.080814 0.01515,-11.16709 z" />
</svg>
