<?xml version="1.0" encoding="UTF-8" standalone="no"?>
<svg
        xmlns="http://www.w3.org/2000/svg"
        version="1.1"
        id="svg2"
        width="1306.24"
        height="1419.84"
        viewBox="0 0 1306.24 1419.84">

    <path id="IN-OUT"
          title="India Outline"
          style="fill:#00c100;fill-opacity:1;stroke-width:0.32"
          d="m 100,51.734369 c -7.751749,0.04196 -15.644983,1.113763 -22.737559,4.392483 -2.154497,-3.242473 -6.972545,-7.061228 -0.497182,-7.859032 15.094306,-5.436257 32.272711,-5.372386 47.283581,0.323986 6.00595,0.327099 -0.13637,6.296238 -2.03011,7.2371 C 115.11946,52.767731 107.48982,51.786696 100,51.734369 Z M 51.734364,100.00001 c -0.288899,15.68559 6.062246,32.39677 19.921201,40.82425 13.640822,8.38599 30.999045,9.29159 46.137215,4.86968 14.45856,-4.20666 25.7651,-16.71771 28.88523,-31.39636 2.27628,-10.05872 2.20138,-20.741445 -0.63445,-30.678952 3.655,-1.830524 7.89224,-5.893051 7.86448,0.594681 4.39278,19.160751 1.13771,41.319771 -12.94173,55.842571 -13.68704,14.11887 -35.0131,17.89847 -53.787728,14.52814 -15.476773,-2.64387 -29.914855,-12.34279 -36.765193,-26.68529 -7.260447,-14.76094 -7.84074,-32.378754 -3.123184,-48.000794 3.041159,2.332092 8.646067,2.893352 5.632713,7.76436 -0.824933,4.056134 -1.182199,8.201295 -1.188554,12.337714 z m 9.198376,1.91202 c -3.005381,-1.14926 -0.844832,-5.363909 -0.930173,-7.906472 1.298653,-5.23741 1.043263,-11.966444 -4.925395,-14.13669 -3.9044,-0.704611 -10.723058,-6.262811 -4.188276,-8.501678 3.541115,-1.639316 7.538783,-2.487526 10.6575,-4.872786 4.586808,-3.790266 0.703525,-12.565838 6.465993,-14.760035 5.153762,1.713676 5.621388,9.375621 11.342941,10.606555 5.422711,0.825084 10.807426,-1.345433 16.21343,-0.930173 1.869352,4.662321 -5.89413,8.556382 -7.183002,13.203287 -1.400423,5.167004 2.629893,9.656806 3.904788,14.443517 2.384872,3.34657 1.3461,6.328611 -2.614387,4.428824 -4.396237,-0.682739 -8.726338,-2.232881 -13.182403,-2.171217 -4.362434,1.447404 -7.531435,5.111743 -11.279478,7.685291 -1.440019,0.915505 -2.615113,2.478337 -4.281538,2.911577 z m 72.50181,1.80867 c -0.36136,12.89271 -7.11993,26.76916 -19.98257,31.21407 -11.63175,3.91802 -25.768988,3.06776 -35.498369,-4.98675 -7.415655,-6.51534 -11.009779,-16.5449 -11.388158,-26.22732 22.289699,0 44.579397,0 66.869097,0 z m 5.63271,-1.80867 c -3.06942,-1.46318 -5.56228,-4.150029 -8.39805,-6.107042 -3.09023,-2.403795 -6.49373,-5.769324 -10.77042,-4.248161 -4.29163,0.837039 -8.57239,1.783118 -12.87082,2.552083 -1.31855,-3.901701 3.02174,-9.392607 4.21162,-13.862159 2.76177,-5.391313 -2.58271,-9.737069 -5.37433,-13.758807 -4.44563,-3.483491 -0.92066,-6.729485 3.43324,-4.880178 5.09823,0.389938 11.46855,2.748272 15.35108,-1.863575 2.08017,-3.535709 8.1443,-12.492259 10.38693,-4.495835 0.62619,4.877891 0.9636,11.591839 6.71685,13.16765 3.05842,1.311759 6.25806,2.337181 9.22528,3.833842 3.56677,6.055609 -7.02341,6.385572 -9.62471,10.193144 -3.85494,4.389065 -1.02202,10.530917 -0.90433,15.670829 0.0524,1.333006 0.68329,3.706569 -1.38234,3.798209 z"/>

</svg>
