<?xml version="1.0" encoding="UTF-8" standalone="no"?>
<svg
   xmlns:dc="http://purl.org/dc/elements/1.1/"
   xmlns:cc="http://creativecommons.org/ns#"
   xmlns:rdf="http://www.w3.org/1999/02/22-rdf-syntax-ns#"
   xmlns:svg="http://www.w3.org/2000/svg"
   xmlns="http://www.w3.org/2000/svg"
   xmlns:sodipodi="http://sodipodi.sourceforge.net/DTD/sodipodi-0.dtd"
   xmlns:inkscape="http://www.inkscape.org/namespaces/inkscape"
   width="31.087563mm"
   height="88.84269mm"
   viewBox="0 0 31.087563 88.84269"
   version="1.1"
   id="svg8"
   sodipodi:docname="pi.svg"
   inkscape:version="1.0.2-2 (e86c870879, 2021-01-15)">
  <sodipodi:namedview
     pagecolor="#ffffff"
     bordercolor="#666666"
     borderopacity="1"
     objecttolerance="10"
     gridtolerance="10"
     guidetolerance="10"
     inkscape:pageopacity="0"
     inkscape:pageshadow="2"
     inkscape:window-width="1920"
     inkscape:window-height="991"
     id="namedview8"
     showgrid="false"
     fit-margin-top="0"
     fit-margin-left="0"
     fit-margin-right="0"
     fit-margin-bottom="0"
     inkscape:zoom="0.78595066"
     inkscape:cx="263.50315"
     inkscape:cy="228.50717"
     inkscape:window-x="-9"
     inkscape:window-y="-9"
     inkscape:window-maximized="1"
     inkscape:current-layer="svg8" />
  <defs
     id="defs2" />
  <metadata
     id="metadata5">
    <rdf:RDF>
      <cc:Work
         rdf:about="">
        <dc:format>image/svg+xml</dc:format>
        <dc:type
           rdf:resource="http://purl.org/dc/dcmitype/StillImage" />
        <dc:title></dc:title>
      </cc:Work>
    </rdf:RDF>
  </metadata>
  <g
     id="layer1"
     transform="matrix(0.62256067,0,0,0.62256067,-12.94313,-3.2684435)">
    <g
       aria-label="π"
       id="text835"
       style="font-size:134.2px;line-height:1.25;font-family:Dodger;-inkscape-font-specification:Dodger;stroke-width:3.35502">
      <path
         id="path837"
         style="font-style:normal;font-variant:normal;font-weight:normal;font-stretch:normal;font-family:'Times New Roman';-inkscape-font-specification:'Times New Roman, ';stroke-width:3.35502"
         d="M 51.688,5.25 C 44.547587,7.2709829 42.752854,15.397359 40.869726,21.595636 38.982039,30.834543 41.447267,40.141606 42.906,49.25 34.108088,58.50372 23.480548,67.729961 21.148778,80.956504 c -2.048685,13.006751 4.779029,28.222686 17.946078,32.314966 4.866906,3.33948 13.716403,-1.72244 16.641421,2.4086 1.125095,7.84217 4.006805,16.11122 1.373048,23.91484 -2.868007,5.71961 -11.462642,8.58611 -16.493864,3.96825 -0.902355,-4.96892 9.53925,-5.42143 5.403732,-11.67442 -1.998765,-6.01347 -12.265833,-5.86804 -13.599447,0.50958 -2.98276,6.7666 3.335319,13.70933 9.860651,14.8617 6.80251,2.18261 15.980353,-0.81063 17.571245,-8.45859 2.202277,-8.10503 -1.050045,-16.31557 -2.143852,-24.25654 2.85667,-4.9573 10.290242,-6.26184 11.518192,-12.81784 C 73.268887,91.935514 68.948253,78.698375 58.513381,75.138459 53.891516,75.304881 47.60321,75.308545 48.195605,69.076071 45.300349,62.613251 48.92385,56.250104 53.566812,51.981779 61.340363,39.390222 62.0357,22.941859 56.419282,9.3964764 55.473838,7.4829681 53.90198,5.6207176 51.688,5.25 Z m 1.281,11.719 c 7.076539,2.471362 4.425838,11.796662 1.997544,16.885032 C 52.350675,39.12513 48.324358,43.487499 44.344,47.75 42.268156,37.667919 42.440311,25.291188 50.623363,17.879301 51.325154,17.410799 52.123981,17.063292 52.969,16.969 Z M 45.25,61.656 c 0.218244,5.490995 5.828742,13.784623 -1.966625,16.477025 -7.125651,4.782636 -10.002295,16.280999 -3.240171,22.598905 1.750699,2.16512 8.829261,6.12311 3.942277,1.54463 -3.874005,-4.958126 -3.864756,-12.995897 1.418656,-16.988056 6.106089,-4.187332 5.35819,5.268137 6.295084,8.882397 C 52.827296,99.878522 53.93748,105.58977 55,111.31 42.848715,115.98597 26.959923,107.31605 26.163833,93.85488 24.722539,83.583652 30.491072,73.641845 38.532331,67.628107 40.771979,65.637949 43.065054,63.707109 45.25,61.656 Z m 6.094,21.469 c 9.438159,-0.813941 15.809813,10.447145 12.953949,18.75772 -0.151321,4.9237 -8.805972,11.63335 -8.419708,3.05093 C 54.396934,97.657876 52.865542,90.392433 51.344,83.125 Z" />
    </g>
  </g>
</svg>
